<svg width="400" height="400" viewBox="0 0 400 400" fill="none" xmlns="http://www.w3.org/2000/svg">
<path d="M226.894 201.924C226.894 261.098 178.432 309.232 118.447 309.232C58.4622 309.232 10 261.098 10 201.924C10 142.75 58.4622 94.6158 118.447 94.6158C178.432 94.6158 226.894 142.75 226.894 201.924Z" stroke="#82B3AB" stroke-width="20"/>
<path d="M390 201.924C390 261.098 341.538 309.232 281.553 309.232C221.568 309.232 173.106 261.098 173.106 201.924C173.106 142.75 221.568 94.6158 281.553 94.6158C341.538 94.6158 390 142.75 390 201.924Z" stroke="#82B3AB" stroke-width="20"/>
<path d="M308.449 282.694C308.449 341.868 259.987 390.002 200.002 390.002C140.017 390.002 91.5546 341.868 91.5546 282.694C91.5546 223.52 140.017 175.385 200.002 175.385C259.987 175.385 308.449 223.52 308.449 282.694Z" stroke="#82B3AB" stroke-width="20"/>
<path d="M308.449 117.308C308.449 176.482 259.987 224.617 200.002 224.617C140.017 224.617 91.5546 176.482 91.5546 117.308C91.5546 58.1344 140.017 10 200.002 10C259.987 10 308.449 58.1344 308.449 117.308Z" stroke="#82B3AB" stroke-width="20"/>
</svg>
