<svg width="1509" height="400" viewBox="0 0 1509 400" fill="none" xmlns="http://www.w3.org/2000/svg">
<path d="M226.894 201.924C226.894 261.098 178.432 309.232 118.447 309.232C58.4622 309.232 10 261.098 10 201.924C10 142.75 58.4622 94.6158 118.447 94.6158C178.432 94.6158 226.894 142.75 226.894 201.924Z" stroke="white" stroke-width="20"/>
<path d="M390 201.924C390 261.098 341.538 309.232 281.553 309.232C221.568 309.232 173.106 261.098 173.106 201.924C173.106 142.75 221.568 94.6158 281.553 94.6158C341.538 94.6158 390 142.75 390 201.924Z" stroke="white" stroke-width="20"/>
<path d="M308.449 282.694C308.449 341.868 259.987 390.002 200.002 390.002C140.017 390.002 91.5546 341.868 91.5546 282.694C91.5546 223.52 140.017 175.385 200.002 175.385C259.987 175.385 308.449 223.52 308.449 282.694Z" stroke="white" stroke-width="20"/>
<path d="M308.449 117.308C308.449 176.482 259.987 224.617 200.002 224.617C140.017 224.617 91.5546 176.482 91.5546 117.308C91.5546 58.1344 140.017 10 200.002 10C259.987 10 308.449 58.1344 308.449 117.308Z" stroke="white" stroke-width="20"/>
<path d="M558.064 167.553C560.699 167.553 562.987 168.593 564.928 170.673C567.008 172.614 568.048 175.18 568.048 178.369C568.048 179.062 567.979 179.756 567.84 180.449C567.701 181.142 567.493 181.766 567.216 182.321L535.392 271.345C534.56 273.702 533.104 275.505 531.024 276.753C528.944 277.862 526.795 278.278 524.576 278.001C520.555 277.724 517.573 275.505 515.632 271.345L492.128 208.945L496.912 209.361L475.28 271.345C473.339 275.505 470.357 277.724 466.336 278.001C464.256 278.278 462.107 277.862 459.888 276.753C457.808 275.505 456.352 273.702 455.52 271.345L423.488 182.321C422.933 181.073 422.656 179.756 422.656 178.369C422.656 175.457 423.557 172.961 425.36 170.881C427.301 168.662 429.867 167.553 433.056 167.553C435.275 167.553 437.216 168.108 438.88 169.217C440.683 170.326 441.931 171.99 442.624 174.209L469.248 249.297L464.464 248.881L486.096 192.097C487.899 187.798 491.088 185.649 495.664 185.649C498.16 185.649 500.101 186.204 501.488 187.313C502.875 188.422 503.984 190.017 504.816 192.097L526.864 249.089L521.248 249.713L548.08 174.209C549.467 169.772 552.795 167.553 558.064 167.553ZM640.161 280.081C628.651 280.081 618.667 277.724 610.209 273.009C601.75 268.156 595.163 261.569 590.449 253.249C585.873 244.79 583.585 235.153 583.585 224.337C583.585 212.134 586.011 201.734 590.865 193.137C595.857 184.401 602.305 177.745 610.209 173.169C618.113 168.454 626.502 166.097 635.377 166.097C642.171 166.097 648.619 167.484 654.721 170.257C660.822 172.892 666.23 176.636 670.945 181.489C675.798 186.204 679.611 191.82 682.385 198.337C685.158 204.716 686.614 211.718 686.753 219.345C686.614 222.118 685.505 224.406 683.425 226.209C681.345 228.012 678.918 228.913 676.145 228.913H595.233L590.241 211.233H668.449L664.497 214.977V209.777C664.219 204.924 662.625 200.694 659.713 197.089C656.801 193.345 653.195 190.502 648.897 188.561C644.598 186.481 640.091 185.441 635.377 185.441C631.217 185.441 627.195 186.134 623.313 187.521C619.569 188.769 616.171 190.849 613.121 193.761C610.209 196.673 607.851 200.556 606.049 205.409C604.385 210.124 603.553 216.017 603.553 223.089C603.553 230.716 605.147 237.372 608.337 243.057C611.526 248.742 615.825 253.18 621.233 256.369C626.641 259.42 632.603 260.945 639.121 260.945C644.251 260.945 648.481 260.46 651.809 259.489C655.137 258.38 657.91 257.062 660.129 255.537C662.347 254.012 664.289 252.556 665.953 251.169C668.033 249.921 670.113 249.297 672.193 249.297C674.689 249.297 676.769 250.198 678.433 252.001C680.097 253.665 680.929 255.676 680.929 258.033C680.929 261.084 679.403 263.857 676.353 266.353C672.609 269.958 667.409 273.148 660.753 275.921C654.235 278.694 647.371 280.081 640.161 280.081ZM723.783 132.401C726.556 132.401 728.983 133.441 731.063 135.521C733.282 137.462 734.391 139.958 734.391 143.009V267.393C734.252 270.444 733.074 273.009 730.855 275.089C728.775 277.03 726.279 278.001 723.367 278.001C720.178 278.001 717.543 277.03 715.463 275.089C713.522 273.009 712.551 270.444 712.551 267.393V143.009C712.551 139.958 713.591 137.462 715.671 135.521C717.751 133.441 720.455 132.401 723.783 132.401ZM817.591 132.401C820.919 132.401 823.554 133.441 825.495 135.521C827.436 137.462 828.407 139.958 828.407 143.009V267.393C828.407 270.444 827.367 273.009 825.287 275.089C823.346 277.03 820.711 278.001 817.383 278.001C814.471 278.001 811.975 277.03 809.895 275.089C807.815 273.009 806.775 270.444 806.775 267.393V143.009C806.775 139.958 807.815 137.462 809.895 135.521C812.114 133.441 814.679 132.401 817.591 132.401ZM722.951 194.385H817.799L817.591 214.353H722.743L722.951 194.385ZM941.299 168.593C944.211 168.593 946.638 169.633 948.579 171.713C950.659 173.654 951.699 176.15 951.699 179.201V233.905C951.699 248.326 947.678 259.628 939.635 267.809C931.592 275.852 920.222 279.873 905.523 279.873C890.963 279.873 879.662 275.852 871.619 267.809C863.715 259.628 859.763 248.326 859.763 233.905V179.201C859.763 176.15 860.734 173.654 862.675 171.713C864.616 169.633 867.112 168.593 870.163 168.593C873.075 168.593 875.502 169.633 877.443 171.713C879.523 173.654 880.563 176.15 880.563 179.201V233.905C880.563 242.918 882.643 249.644 886.803 254.081C891.102 258.518 897.342 260.737 905.523 260.737C913.843 260.737 920.152 258.518 924.451 254.081C928.75 249.644 930.899 242.918 930.899 233.905V179.201C930.899 176.15 931.87 173.654 933.811 171.713C935.752 169.633 938.248 168.593 941.299 168.593ZM1035.53 166.721C1045.8 166.721 1053.7 169.286 1059.25 174.417C1064.79 179.409 1068.47 186.204 1070.27 194.801L1066.94 193.761L1068.4 190.433C1070.2 186.828 1072.91 183.222 1076.51 179.617C1080.25 175.873 1084.69 172.822 1089.82 170.465C1094.95 167.969 1100.43 166.721 1106.25 166.721C1115.82 166.721 1123.24 168.801 1128.51 172.961C1133.78 176.982 1137.45 182.46 1139.53 189.393C1141.61 196.188 1142.65 203.814 1142.65 212.273V267.393C1142.65 270.444 1141.68 273.009 1139.74 275.089C1137.8 277.03 1135.31 278.001 1132.25 278.001C1129.34 278.001 1126.85 277.03 1124.77 275.089C1122.83 273.009 1121.85 270.444 1121.85 267.393V212.481C1121.85 207.628 1121.16 203.19 1119.77 199.169C1118.53 195.148 1116.24 191.958 1112.91 189.601C1109.72 187.105 1105.28 185.857 1099.6 185.857C1094.19 185.857 1089.34 187.105 1085.04 189.601C1080.88 191.958 1077.62 195.148 1075.26 199.169C1072.91 203.19 1071.73 207.628 1071.73 212.481V267.393C1071.73 270.444 1070.76 273.009 1068.81 275.089C1066.87 277.03 1064.38 278.001 1061.33 278.001C1058.28 278.001 1055.78 277.03 1053.84 275.089C1051.9 273.009 1050.93 270.444 1050.93 267.393V212.273C1050.93 207.42 1050.23 202.982 1048.85 198.961C1047.6 194.94 1045.38 191.75 1042.19 189.393C1039 187.036 1034.56 185.857 1028.88 185.857C1023.47 185.857 1018.69 187.036 1014.53 189.393C1010.37 191.75 1007.11 194.94 1004.75 198.961C1002.53 202.982 1001.42 207.42 1001.42 212.273V267.393C1001.42 270.444 1000.38 273.009 998.303 275.089C996.361 277.03 993.935 278.001 991.023 278.001C987.972 278.001 985.476 277.03 983.535 275.089C981.593 273.009 980.623 270.444 980.623 267.393V179.201C980.623 176.15 981.593 173.654 983.535 171.713C985.476 169.633 987.972 168.593 991.023 168.593C993.935 168.593 996.361 169.633 998.303 171.713C1000.38 173.654 1001.42 176.15 1001.42 179.201V191.473L997.471 193.761C998.441 190.71 1000.04 187.59 1002.25 184.401C1004.47 181.212 1007.25 178.3 1010.57 175.665C1014.04 173.03 1017.85 170.881 1022.01 169.217C1026.17 167.553 1030.68 166.721 1035.53 166.721ZM1261.41 166.929C1264.46 166.929 1266.96 167.969 1268.9 170.049C1270.84 171.99 1271.81 174.486 1271.81 177.537V267.393C1271.81 270.444 1270.84 273.009 1268.9 275.089C1266.96 277.03 1264.46 278.001 1261.41 278.001C1258.5 278.001 1256 277.03 1253.92 275.089C1251.98 273.009 1251.01 270.444 1251.01 267.393V252.417L1255.38 253.041C1255.38 255.537 1254.34 258.31 1252.26 261.361C1250.32 264.412 1247.61 267.393 1244.15 270.305C1240.68 273.078 1236.59 275.436 1231.88 277.377C1227.16 279.18 1222.1 280.081 1216.69 280.081C1207.12 280.081 1198.53 277.654 1190.9 272.801C1183.27 267.809 1177.24 261.014 1172.8 252.417C1168.37 243.82 1166.15 234.044 1166.15 223.089C1166.15 211.857 1168.37 202.012 1172.8 193.553C1177.24 184.956 1183.2 178.23 1190.69 173.377C1198.32 168.524 1206.78 166.097 1216.07 166.097C1222.03 166.097 1227.51 167.068 1232.5 169.009C1237.63 170.95 1242.07 173.446 1245.81 176.497C1249.56 179.548 1252.4 182.806 1254.34 186.273C1256.42 189.601 1257.46 192.79 1257.46 195.841L1251.01 196.465V177.537C1251.01 174.625 1251.98 172.129 1253.92 170.049C1256 167.969 1258.5 166.929 1261.41 166.929ZM1218.98 260.945C1225.5 260.945 1231.25 259.281 1236.24 255.953C1241.24 252.625 1245.12 248.118 1247.89 242.433C1250.66 236.609 1252.05 230.161 1252.05 223.089C1252.05 215.878 1250.66 209.43 1247.89 203.745C1245.12 198.06 1241.24 193.553 1236.24 190.225C1231.25 186.897 1225.5 185.233 1218.98 185.233C1212.6 185.233 1206.92 186.897 1201.92 190.225C1197.07 193.553 1193.19 198.06 1190.28 203.745C1187.5 209.43 1186.12 215.878 1186.12 223.089C1186.12 230.161 1187.5 236.609 1190.28 242.433C1193.19 248.118 1197.07 252.625 1201.92 255.953C1206.92 259.281 1212.6 260.945 1218.98 260.945ZM1357.32 166.097C1367.16 166.097 1374.79 168.177 1380.2 172.337C1385.61 176.358 1389.35 181.836 1391.43 188.769C1393.65 195.564 1394.76 203.19 1394.76 211.649V267.393C1394.76 270.444 1393.72 273.009 1391.64 275.089C1389.7 277.03 1387.27 278.001 1384.36 278.001C1381.31 278.001 1378.81 277.03 1376.87 275.089C1374.93 273.009 1373.96 270.444 1373.96 267.393V211.857C1373.96 206.865 1373.27 202.428 1371.88 198.545C1370.49 194.524 1368.07 191.334 1364.6 188.977C1361.27 186.481 1356.56 185.233 1350.45 185.233C1344.77 185.233 1339.78 186.481 1335.48 188.977C1331.18 191.334 1327.78 194.524 1325.29 198.545C1322.93 202.428 1321.75 206.865 1321.75 211.857V267.393C1321.75 270.444 1320.71 273.009 1318.63 275.089C1316.69 277.03 1314.26 278.001 1311.35 278.001C1308.3 278.001 1305.8 277.03 1303.86 275.089C1301.92 273.009 1300.95 270.444 1300.95 267.393V179.201C1300.95 176.15 1301.92 173.654 1303.86 171.713C1305.8 169.633 1308.3 168.593 1311.35 168.593C1314.26 168.593 1316.69 169.633 1318.63 171.713C1320.71 173.654 1321.75 176.15 1321.75 179.201V190.849L1318.01 192.929C1318.98 189.878 1320.64 186.828 1323 183.777C1325.49 180.588 1328.48 177.676 1331.94 175.041C1335.41 172.268 1339.29 170.118 1343.59 168.593C1347.89 166.929 1352.47 166.097 1357.32 166.097ZM1417.19 260.945C1415.94 259.004 1415.39 256.785 1415.53 254.289C1415.66 251.654 1417.12 249.436 1419.89 247.633C1421.84 246.385 1423.85 245.9 1425.93 246.177C1428.14 246.316 1430.22 247.356 1432.17 249.297C1436.05 253.596 1440.35 256.993 1445.06 259.489C1449.92 261.985 1455.74 263.233 1462.53 263.233C1465.31 263.094 1468.15 262.678 1471.06 261.985C1473.97 261.153 1476.47 259.766 1478.55 257.825C1480.63 255.745 1481.67 252.764 1481.67 248.881C1481.67 245.414 1480.56 242.641 1478.34 240.561C1476.12 238.481 1473.21 236.817 1469.61 235.569C1466 234.182 1462.12 232.934 1457.96 231.825C1453.52 230.577 1449.01 229.19 1444.44 227.665C1440 226.14 1435.98 224.198 1432.37 221.841C1428.77 219.345 1425.79 216.156 1423.43 212.273C1421.21 208.39 1420.1 203.606 1420.1 197.921C1420.1 191.404 1421.9 185.788 1425.51 181.073C1429.25 176.358 1434.04 172.684 1439.86 170.049C1445.82 167.414 1452.27 166.097 1459.21 166.097C1463.23 166.097 1467.46 166.652 1471.89 167.761C1476.33 168.732 1480.63 170.326 1484.79 172.545C1488.95 174.764 1492.56 177.676 1495.61 181.281C1496.99 183.084 1497.76 185.233 1497.89 187.729C1498.17 190.225 1497.06 192.444 1494.57 194.385C1492.9 195.772 1490.89 196.396 1488.53 196.257C1486.18 196.118 1484.24 195.356 1482.71 193.969C1480.08 190.641 1476.68 188.076 1472.52 186.273C1468.36 184.332 1463.64 183.361 1458.37 183.361C1455.74 183.361 1452.97 183.777 1450.05 184.609C1447.28 185.302 1444.92 186.62 1442.98 188.561C1441.04 190.502 1440.07 193.345 1440.07 197.089C1440.07 200.556 1441.18 203.329 1443.4 205.409C1445.76 207.489 1448.81 209.222 1452.55 210.609C1456.29 211.996 1460.38 213.244 1464.82 214.353C1469.12 215.462 1473.35 216.78 1477.51 218.305C1481.81 219.83 1485.62 221.841 1488.95 224.337C1492.42 226.694 1495.19 229.814 1497.27 233.697C1499.49 237.441 1500.6 242.225 1500.6 248.049C1500.6 254.844 1498.59 260.668 1494.57 265.521C1490.68 270.236 1485.69 273.841 1479.59 276.337C1473.63 278.833 1467.32 280.081 1460.66 280.081C1452.76 280.081 1444.85 278.694 1436.95 275.921C1429.18 273.009 1422.6 268.017 1417.19 260.945Z" fill="white"/>
</svg>
